<svg width="78" height="80" viewBox="0 0 78 80" fill="none" xmlns="http://www.w3.org/2000/svg">
<path d="M28.1031 39.7052C35.4307 39.7052 41.3709 33.765 41.3709 26.4374C41.3709 19.1098 35.4307 13.1696 28.1031 13.1696C20.7755 13.1696 14.8353 19.1098 14.8353 26.4374C14.8353 33.765 20.7755 39.7052 28.1031 39.7052Z" fill="#82B21E"/>
<path d="M55.3267 26.5356C62.6543 26.5356 68.5945 20.5954 68.5945 13.2678C68.5945 5.9402 62.6543 0 55.3267 0C47.999 0 42.0588 5.9402 42.0588 13.2678C42.0588 20.5954 47.999 26.5356 55.3267 26.5356Z" fill="#82B21E"/>
<path d="M41.4692 38.0344C41.3709 37.4447 41.4692 36.7568 41.764 36.1671C43.4348 32.8256 46.9729 29.6806 56.1129 29.6806C66.0392 29.6806 74.5896 29.2875 77.1448 43.7347C78.0294 48.5504 72.624 76.6585 45.7935 78.919C34.5896 78.919 37.3414 67.3219 45.9901 67.3219C49.823 67.3219 56.3095 63.489 59.5527 57.3956C62.796 51.3022 58.7665 50.6143 56.1129 54.3489C53.4593 58.0836 50.9041 62.2113 44.8107 63.9804C44.6141 59.656 45.2038 38.7224 41.4692 38.0344Z" fill="#82B21E"/>
<path d="M39.7984 40.0983C38.1277 36.7568 36.5552 43.3415 27.5134 43.3415C18.2751 43.3415 19.5527 35.5774 14.3439 44.7175C13.5576 46.1917 11.9852 47.0762 10.3144 47.0762C7.46427 47.0762 3.43479 46.3882 4.31931 49.9263C6.38319 62.6045 13.4594 78.0344 35.6707 80V68.5013C29.7739 68.5013 22.8943 64.7666 19.7493 58.575C16.6043 52.3833 20.5355 51.7936 23.1891 55.5283C25.8427 59.2629 29.479 65.4546 40.2898 65.1597C40.2898 65.0615 40.5847 41.3759 39.7984 40.0983Z" fill="#82B21E"/>
<path d="M2.8451 43.7346C0.289814 41.5725 -0.103307 37.7395 1.76402 34.9877C4.12274 31.4496 7.56254 27.2236 10.9041 31.0565C15.425 36.3636 15.3267 43.0467 7.56254 44.8157C5.59694 45.3071 4.02446 44.7174 2.8451 43.7346Z" fill="#82B21E"/>
</svg>
