<svg width="112" height="113" viewBox="0 0 112 113" fill="none" xmlns="http://www.w3.org/2000/svg">
<path fill-rule="evenodd" clip-rule="evenodd" d="M49.5559 72H54.0139V76.458H49.5559V72ZM55.8499 78H60.3139V82.458H55.8499V78ZM49.5559 78H54.0139V82.458H49.5559V78ZM55.8499 72H60.3139V76.458H55.8499V72Z" fill="#82B21E"/>
<path fill-rule="evenodd" clip-rule="evenodd" d="M7.02186 72.5639C5.1787 72.0065 3.37472 71.327 1.62186 70.5299L0.919861 70.2299L1.24386 69.5519L2.85186 65.9519L3.17586 65.2739L3.85386 65.5739C5.8446 66.4957 7.91257 67.2406 10.0339 67.7999C12.1806 68.3577 14.3702 68.735 16.5798 68.9279C18.5488 69.1051 20.528 69.1392 22.5018 69.0299C24.2824 68.9687 26.0546 68.7579 27.7998 68.3999L28.6998 68.2019V73.7699L28.0998 73.8719C25.5957 74.2945 23.0614 74.5132 20.5218 74.5259C17.9001 74.5319 15.282 74.3313 12.6918 73.9259C10.7758 73.6144 8.88186 73.1795 7.02186 72.6239V72.5639ZM101.138 54.7979C102.8 53.1179 105.2 52.1999 108.29 52.1159H109.094L109.04 52.9199C108.392 63.4859 99.1817 62.9819 99.1277 62.9819H98.4017V62.2319C98.5277 58.9919 99.4577 56.5319 101.114 54.8519L101.138 54.7979ZM22.2258 65.1119C19.7178 63.3119 18.1878 61.2719 17.7378 58.9379C17.2878 56.6039 17.8398 54.0719 19.5378 51.2879L19.9098 50.6879L20.5398 51.0659C20.5398 51.0659 28.5678 55.7339 23.3238 64.8659L22.9218 65.5919L22.2258 65.1119ZM56.4258 33.672C58.7598 34.176 60.7938 35.73 62.5218 38.262L63.0018 38.94L62.2758 39.3419C53.0178 44.4359 48.4758 36.384 48.4758 36.342L48.0978 35.694L48.7518 35.316C51.5598 33.684 54.1218 33.156 56.4258 33.66V33.672ZM91.6037 57.1079C92.8577 59.1119 93.1578 61.6499 92.5338 64.6859L92.3838 65.4899L91.5797 65.2379C81.4938 62.1239 84.1278 53.2379 84.1518 53.2379L84.3558 52.5359L85.0578 52.7339C88.1898 53.6099 90.3497 55.0679 91.6037 57.1019V57.1079ZM76.8498 54.2939C78.6498 55.8779 79.6338 58.2119 79.9098 61.2719L79.9878 62.0999H79.1838C68.6478 62.0219 68.5998 52.7639 68.5998 52.7399V52.0139H69.3558C72.5898 51.9599 75.0978 52.7399 76.8798 54.3179L76.8498 54.2939ZM100.16 24.942C102.47 25.44 104.528 26.97 106.28 29.508L106.736 30.186L106.034 30.588C96.7998 35.73 92.2337 27.702 92.2037 27.678L91.8317 27L92.4797 26.622C95.2937 24.99 97.8257 24.438 100.16 24.918V24.942ZM91.3997 33.396C93.6597 34.12 95.5417 35.834 97.0457 38.538L97.4477 39.24L96.6977 39.57C87.0137 43.8059 83.2458 35.37 83.2218 35.37L82.9218 34.692L83.5998 34.368C86.5338 33.012 89.1438 32.712 91.3997 33.414V33.396ZM75.3678 12.498C76.9278 10.698 79.2318 9.65999 82.3218 9.33599L83.1258 9.25799V10.086C83.1738 20.652 73.9398 20.778 73.9158 20.778H73.1598V20.046C73.0638 16.788 73.8138 14.274 75.3678 12.498ZM63.4278 26.796C63.6798 24.438 65.0058 22.254 67.3638 20.274L67.9938 19.746L68.4678 20.424C74.4678 29.106 66.8898 34.422 66.8898 34.452L66.2898 34.878L65.8338 34.278C63.9258 31.644 63.1518 29.16 63.4338 26.802L63.4278 26.796ZM29.4258 58.1999C30.6258 55.3379 32.3118 53.3999 34.4958 52.4759C36.6798 51.5519 39.2958 51.5459 42.3498 52.5779L43.0518 52.8059L42.8298 53.5079C42.8298 53.5079 39.9918 62.3399 29.9058 59.2019L29.1258 58.9499L29.4258 58.1999ZM2.70786 48.8519C5.76786 48.9539 8.17986 49.8299 9.82985 51.5339C11.5159 53.2199 12.4158 55.6499 12.5658 58.9139V59.6639H11.8158C11.8158 59.6639 2.55786 60.1379 1.90386 49.6019L1.85586 48.7979L2.70786 48.8519ZM8.22785 24.918C11.2398 25.642 13.3978 26.996 14.7018 28.98C15.9798 30.96 16.3818 33.546 15.8538 36.78L15.7518 37.512L15.0258 37.41C15.0258 37.41 5.84586 36.03 7.32186 25.566L7.42386 24.762L8.22785 24.918ZM29.1798 6.59999C32.1798 7.32599 34.3218 8.68199 35.6238 10.662C36.9258 12.642 37.3338 15.234 36.8238 18.462L36.6798 19.2L35.9538 19.074C35.9538 19.074 26.7678 17.694 28.2498 7.25999L28.3758 6.43199L29.1798 6.59999ZM26.9178 26.598C27.5178 24.312 29.1498 22.332 31.7598 20.7L32.4378 20.25L32.8158 21C37.5318 30.438 29.3058 34.65 29.2758 34.65L28.6278 35.004L28.2738 34.35C26.7698 31.49 26.3178 28.906 26.9178 26.598ZM51.3558 6.89999C51.9558 4.58999 53.5638 2.634 56.1558 0.977999L56.8758 0.599999L57.2538 1.326C61.9698 10.788 53.7438 14.976 53.7138 15.006L53.0658 15.354L52.7118 14.676C51.2038 11.812 50.7518 9.23599 51.3558 6.94799V6.89999ZM89.8217 74.4719C87.2743 74.4592 84.732 74.2405 82.2198 73.8179L81.6198 73.7159V68.1479L82.5498 68.3459C84.2781 68.7122 86.0344 68.9309 87.7998 68.9999C89.7716 69.1091 91.7488 69.0751 93.7157 68.8979C96.0967 68.6781 98.455 68.2587 100.766 67.6439C103.037 67.0181 105.246 66.1867 107.366 65.1599L108.044 64.7879L110.078 69.0239L110.402 69.7019L109.724 70.0319C107.818 70.9478 105.849 71.7258 103.832 72.3599C101.795 73.0002 99.7161 73.4955 97.6097 73.8419C95.0295 74.2457 92.4214 74.4464 89.8098 74.4419L89.8217 74.4719ZM60.9918 60.8219L64.3578 58.3619L64.7838 58.0379L65.2338 58.3619L73.6338 64.4579L73.9338 64.6859V86.9999H98.5338V92.4719H12.6678V86.9999H35.8998V64.7099L36.2298 64.4819L45.1998 57.9839C48.0858 55.9019 51.0678 53.8439 54.0318 51.7859L58.5198 48.6779C62.32 46.0829 65.9532 43.2513 69.3978 40.2C72.8838 37.014 75.9498 33.504 77.7978 29.712C79.3586 26.5002 81.3334 23.5068 83.6718 20.808C86.096 17.9903 88.852 15.4761 91.8797 13.32L92.3838 12.972L92.8098 13.374L94.3157 14.73C94.8137 15.228 95.2937 15.684 95.7437 16.134L96.3737 16.8L95.6417 17.298C92.8561 19.2107 90.3116 21.4529 88.0638 23.976C85.9268 26.4204 84.1213 29.1358 82.6938 32.052C81.7117 34.055 80.519 35.9477 79.1358 37.698C77.7858 39.4234 76.3268 41.0607 74.7678 42.5999C77.8196 42.1082 80.9138 41.9313 84.0018 42.0719C86.8536 42.1866 89.6825 42.6316 92.4317 43.3979C94.7578 44.0268 97.1983 44.1049 99.5597 43.6259C102.472 43.0493 105.274 42.0166 107.864 40.5659L108.512 40.2119L108.866 40.8659L110.726 44.2799L111.074 44.9279L110.42 45.2819C107.219 47.0567 103.755 48.3104 100.16 48.9959C97.1001 49.5727 93.9486 49.4372 90.9498 48.5999C85.7935 47.0849 80.3536 46.8013 75.0678 47.7719C69.5357 48.8755 64.3017 51.1437 59.7138 54.4259L55.0218 57.6839L50.3538 60.9479L41.3538 67.4699V86.9999H68.4798V67.4939L60.9738 62.0519L60.1698 61.4519L60.9918 60.8219ZM18.1398 28.8C16.9173 24.68 16.133 20.4426 15.7998 16.158L15.7458 15.408L16.5018 15.354L21.1998 15C21.1998 15.096 21.2478 15.978 21.2718 16.08C21.6097 20.3619 22.4433 24.5902 23.7558 28.68C25.2227 33.3218 27.1399 37.8091 29.4798 42.0779C31.1029 42.0207 32.7279 42.0628 34.3458 42.2039C35.8792 42.3053 37.4044 42.5057 38.9118 42.8039C38.5291 41.7599 38.2243 40.689 37.9998 39.5999C37.751 38.46 37.5905 37.3026 37.5198 36.138C37.3791 33.6417 37.5403 31.1376 37.9998 28.68C38.4599 26.2269 39.1304 23.818 40.0038 21.48C41.2604 18.1375 42.0674 14.643 42.4038 11.088C42.7098 8.0443 42.4721 4.97045 41.7018 2.01L41.6478 1.83L41.4498 1.104L42.1998 0.929999C42.8298 0.749999 43.4778 0.599999 44.1078 0.473999C44.7858 0.354 45.4098 0.228 46.0398 0.126L46.7418 0L46.9158 0.653999C47.8309 4.17609 48.1373 7.82866 47.8218 11.454C47.4557 15.5194 46.5518 19.5183 45.1338 23.346C44.7388 24.382 44.3964 25.4374 44.1078 26.508C43.8095 27.5349 43.5731 28.5787 43.3998 29.634C43.9357 29.0099 44.513 28.4225 45.1278 27.876C45.7433 27.2991 46.3882 26.7544 47.0598 26.244L48.6438 25.044L49.5198 24.366C56.8938 18.768 67.4838 10.716 71.9238 2.334L72.3258 1.608L73.0038 2.058L76.2918 4.26599L76.8918 4.64399L76.5678 5.24399C71.4078 14.55 60.5418 22.8 52.5618 28.854L51.8838 29.382L50.4798 30.462L49.9518 30.864C48.609 31.9282 47.4144 33.1672 46.3998 34.548C45.5454 35.6731 44.9159 36.9525 44.5458 38.316C44.3621 39.011 44.2693 39.727 44.2698 40.446C44.2827 41.0417 44.3755 41.6329 44.5458 42.2039C44.7722 42.6686 45.0225 43.1212 45.2958 43.5599C45.5718 43.9859 45.8958 44.4119 46.1778 44.7899C46.5123 45.1896 46.8731 45.5664 47.2578 45.9179C47.6598 46.2899 48.1098 46.6679 48.5358 46.9919L49.2858 47.5919L48.5358 48.1919L45.1998 50.7599L44.7738 51.0839L44.3478 50.7839C38.3478 46.8959 35.9478 47.0699 28.9638 47.5499L28.0878 47.5979C25.0491 47.7701 22.0015 47.5013 19.0398 46.7999C15.8555 46.0575 12.7787 44.9123 9.88385 43.3919C8.57585 42.7139 7.32185 41.9819 6.06786 41.1839C4.81386 40.3859 3.60786 39.498 2.46786 38.574L1.86786 38.094L2.31786 37.494L5.15586 33.756L5.80385 34.284C6.85985 35.112 7.91585 35.886 9.01985 36.588C10.0924 37.2977 11.2064 37.9429 12.3558 38.52C14.1221 39.4555 15.9697 40.2287 17.8758 40.83C19.6511 41.389 21.4721 41.7905 23.3178 42.0299C21.2107 37.7788 19.4782 33.352 18.1398 28.8Z" fill="#82B21E"/>
<path fill-rule="evenodd" clip-rule="evenodd" d="M84.8117 102.402H26.3838H25.5258V101.652V97.71V96.96H26.3838H84.8117H85.6757V97.71V101.652V102.402H84.8117Z" fill="#82B21E"/>
<path fill-rule="evenodd" clip-rule="evenodd" d="M78.0679 112.35H33.1279H32.4619V111.594V107.658V106.902H33.1279H78.0679H78.7339V107.658V111.594V112.35H78.0679Z" fill="#82B21E"/>
</svg>
