<svg width="80" height="50" viewBox="0 0 80 50" fill="none" xmlns="http://www.w3.org/2000/svg">
<path d="M22.0018 25.0192C28.0867 25.0192 33.0195 20.0864 33.0195 14.0014C33.0195 7.91651 28.0867 2.9837 22.0018 2.9837C15.9168 2.9837 10.984 7.91651 10.984 14.0014C10.984 20.0864 15.9168 25.0192 22.0018 25.0192Z" fill="#82B21E"/>
<path d="M66.0019 8.00034H38.0024C36.8966 8.00034 36.0032 8.89376 36.0032 9.99958V27.9995H8.00034V1.99924C8.00034 0.893421 7.10692 0 6.0011 0H1.99924C0.893422 0 0 0.896793 0 1.99924V47.9994C0 49.1052 0.893422 49.9987 1.99924 49.9987H6.0011C7.10692 49.9987 8.00034 49.1052 8.00034 47.9994V39.9983H72.003V47.9994C72.003 49.1052 72.8965 49.9987 74.0023 49.9987H78.0008C79.1066 49.9987 80 49.1052 80 47.9994V21.9984C80.0034 14.2678 73.7359 8.00034 66.0019 8.00034Z" fill="#82B21E"/>
</svg>
