<svg width="80" height="90" viewBox="0 0 80 90" fill="none" xmlns="http://www.w3.org/2000/svg">
<path d="M79.6573 46.877C76.0534 36.6303 72.7855 37.3328 73.2283 28.9491C73.5796 22.2606 68.7693 11.5863 59.1029 5.40168C45.5425 -3.27209 22.835 -1.89772 10.0686 12.4262C-1.41493 25.3147 -2.14793 42.6012 3.22737 51.0153C12.6494 65.7516 42.6564 64.255 55.3921 43.3189C43.3435 55.7187 24.7591 57.3527 14.6193 50.5725C-6.16413 36.6761 15.2607 -0.676064 49.2533 10.5937C60.6147 14.3656 66.5398 20.2295 65.593 33.286C64.356 50.1602 53.6513 59.8723 48.0011 70.3633C44.779 76.3342 42.7938 83.4198 44.7332 89.9251C47.1765 84.5498 49.8947 78.8538 54.934 75.7692C61.531 71.7377 71.0752 73.1579 73.2894 71.5392C74.4347 70.6993 74.6943 69.1111 74.8012 67.6909C75.4579 58.2384 72.7091 55.169 75.7938 52.4813C77.7485 50.771 81.0775 50.9084 79.6573 46.877Z" fill="#82B21E"/>
<path d="M26.1029 50.0227L26.6221 48.7705L25.7822 47.6863L24.4384 47.8695L23.9192 49.1217L24.7438 50.2059L26.1029 50.0227Z" fill="#82B21E"/>
<path d="M38.1973 38.3865L38.7165 37.1343L37.8766 36.05L36.5328 36.2333L36.0136 37.5008L36.8382 38.5697L38.1973 38.3865Z" fill="#82B21E"/>
<path d="M51.2232 29.4989L50.3986 28.4147L49.0395 28.5979L48.5203 29.8501L49.3602 30.9343L50.704 30.7511L51.2232 29.4989Z" fill="#82B21E"/>
<path d="M19.5212 48.5262L21.0177 44.9071L18.6202 41.8071L14.7415 42.3263L13.2449 45.9455L15.6424 49.0455L19.5212 48.5262Z" fill="#82B21E"/>
<path d="M17.0015 21.9856L15.505 25.6048L17.9025 28.7048L21.7813 28.1856L23.2778 24.5511L20.8803 21.4512L17.0015 21.9856Z" fill="#82B21E"/>
<path d="M10.3435 31.2856L8.86224 34.9047L11.2445 38.0047L15.1385 37.4855L16.6198 33.8511L14.2223 30.7511L10.3435 31.2856Z" fill="#82B21E"/>
<path d="M24.194 36.783L25.1866 34.3396L23.5832 32.2476L20.9566 32.5988L19.9641 35.0421L21.5675 37.1342L24.194 36.783Z" fill="#82B21E"/>
<path d="M29.722 39.4554L28.1034 37.3633L25.4921 37.7145L24.4842 40.1578L26.1029 42.2499L28.7142 41.8987L29.722 39.4554Z" fill="#82B21E"/>
<path d="M42.2135 13.4188L40.1825 10.7922L36.8993 11.2351L35.6318 14.3045L37.6628 16.9311L40.9613 16.4882L42.2135 13.4188Z" fill="#82B21E"/>
<path d="M58.1103 28.9186L59.1945 28.7659L59.6069 27.758L58.9349 26.8876L57.8507 27.025L57.4384 28.0481L58.1103 28.9186Z" fill="#82B21E"/>
<path d="M49.5893 46.6785L51.773 41.3643L48.2607 36.8136L42.5648 37.5771L40.381 42.8913L43.8933 47.442L49.5893 46.6785Z" fill="#82B21E"/>
<path d="M57.9271 19.2217L54.4148 14.671L48.7189 15.4346L46.5352 20.7488L50.0474 25.2994L55.7434 24.5359L57.9271 19.2217Z" fill="#82B21E"/>
<path d="M36.1358 23.4975L37.3727 20.5044L35.3875 17.939L32.1959 18.3665L30.959 21.3596L32.9289 23.9251L36.1358 23.4975Z" fill="#82B21E"/>
<path d="M27.9354 29.8043L29.9053 32.3698L33.1121 31.9269L34.3491 28.9339L32.3639 26.3837L29.157 26.8112L27.9354 29.8043Z" fill="#82B21E"/>
<path d="M57.6369 37.4091L58.8738 34.4161L56.8887 31.8506L53.6818 32.2934L52.4601 35.2865L54.4301 37.8367L57.6369 37.4091Z" fill="#82B21E"/>
<path d="M44.0613 30.8274L45.2982 27.8344L43.313 25.2842L40.1062 25.7118L38.8845 28.7048L40.8544 31.2703L44.0613 30.8274Z" fill="#82B21E"/>
<path d="M23.9497 13.0523L22.7281 16.0454L24.698 18.5956L27.9049 18.168L29.1418 15.175L27.1566 12.6095L23.9497 13.0523Z" fill="#82B21E"/>
<path d="M34.8531 49.2897L36.0747 46.2967L34.1048 43.7465L30.8979 44.174L29.661 47.1671L31.6462 49.7173L34.8531 49.2897Z" fill="#82B21E"/>
</svg>
