<svg width="80" height="69" viewBox="0 0 80 69" fill="none" xmlns="http://www.w3.org/2000/svg">
<path d="M53.3335 42.5858H66.9631L40.7678 68.6195C40.5658 68.8215 40.3099 68.9158 40.054 68.9158C39.7981 68.9158 39.5422 68.8215 39.3402 68.6195L13.1449 42.5858H25.953H25.9664C26.0473 42.5858 26.1281 42.5858 26.1954 42.5724C26.2089 42.5724 26.2358 42.5724 26.2493 42.5589C26.3031 42.5454 26.357 42.5454 26.4109 42.532C26.4378 42.532 26.4648 42.5185 26.4917 42.5185C26.5321 42.505 26.586 42.4916 26.6264 42.4781C26.6533 42.4646 26.6937 42.4646 26.7207 42.4512C26.7611 42.4377 26.8015 42.4242 26.8419 42.4108C26.8688 42.3973 26.8957 42.3838 26.9227 42.3703C26.99 42.3434 27.0439 42.3165 27.1112 42.2761C27.1382 42.2626 27.1651 42.2491 27.192 42.2222C27.2324 42.1953 27.2728 42.1818 27.2998 42.1549C27.3267 42.1414 27.3537 42.1145 27.3671 42.101C27.4075 42.0741 27.4345 42.0471 27.4749 42.0202C27.5018 42.0067 27.5153 41.9798 27.5422 41.9663C27.5826 41.9394 27.623 41.899 27.65 41.8586C27.6634 41.8451 27.6769 41.8316 27.7038 41.8182C27.7442 41.7778 27.7846 41.7239 27.825 41.6835C27.825 41.67 27.8385 41.67 27.852 41.6565C27.9462 41.5488 28.0271 41.4141 28.1079 41.2794C28.1213 41.2525 28.1348 41.239 28.1483 41.2121C28.1752 41.1717 28.1887 41.1313 28.2021 41.0909C28.2156 41.064 28.2291 41.0235 28.2425 40.9966C28.256 40.9562 28.2695 40.9293 28.2829 40.8889C28.2964 40.8485 28.3099 40.8081 28.3234 40.7811C28.3234 40.7677 28.3368 40.7542 28.3368 40.7407L32.2829 25.9259L37.7106 57.1717C37.7106 57.1852 37.7106 57.1852 37.7106 57.1852C37.724 57.2256 37.724 57.266 37.7375 57.3064C37.751 57.3468 37.751 57.3872 37.7644 57.4141C37.7779 57.4411 37.7779 57.4815 37.7914 57.5084C37.8048 57.5488 37.8183 57.6027 37.8318 57.6431C37.8452 57.67 37.8587 57.6969 37.8587 57.7239C37.8722 57.7643 37.8991 57.8182 37.926 57.8586C37.9395 57.8855 37.953 57.899 37.9664 57.9259C37.9934 57.9663 38.0203 58.0202 38.0473 58.0606C38.0607 58.0741 38.0742 58.101 38.0877 58.1279C38.1146 58.1683 38.1415 58.2087 38.1819 58.2491C38.1954 58.2761 38.2089 58.2895 38.2358 58.3165C38.2627 58.3569 38.3032 58.3838 38.3301 58.4242C38.3436 58.4512 38.3705 58.4646 38.3974 58.4916C38.4244 58.5185 38.4648 58.5589 38.4917 58.5858C38.5186 58.6128 38.5456 58.6262 38.559 58.6532C38.5994 58.6936 38.6533 58.7205 38.6937 58.7609C38.7341 58.7879 38.7611 58.8148 38.8015 58.8283C38.8419 58.8552 38.8823 58.8821 38.9227 58.9091C38.9496 58.9225 38.9766 58.936 39.0035 58.9495C39.0439 58.9764 39.0978 58.9899 39.1382 59.0168C39.1651 59.0303 39.192 59.0303 39.2055 59.0437C39.2594 59.0707 39.3132 59.0842 39.3671 59.0976C39.3806 59.0976 39.3941 59.1111 39.4075 59.1111C39.421 59.1111 39.421 59.1111 39.421 59.1111C39.5287 59.138 39.6365 59.165 39.7577 59.1919C39.7712 59.1919 39.7846 59.1919 39.7981 59.1919C39.9058 59.2054 40.0136 59.2188 40.1348 59.2188C40.2021 59.2188 40.2695 59.2188 40.3368 59.2054H40.3503C40.4176 59.2054 40.4715 59.1919 40.5388 59.1784H40.5523C40.5658 59.1784 40.5658 59.1784 40.5792 59.165C40.6466 59.1515 40.7005 59.138 40.7543 59.1246C40.7813 59.1111 40.8082 59.1111 40.8217 59.0976C40.8755 59.0842 40.9159 59.0707 40.9563 59.0572C40.9833 59.0438 41.0102 59.0437 41.0372 59.0303C41.091 59.0168 41.1314 58.9899 41.1853 58.9629C41.2257 58.9495 41.2661 58.9225 41.3065 58.9091C41.3469 58.8956 41.3739 58.8687 41.4143 58.8417C41.4412 58.8283 41.4681 58.8013 41.4951 58.7879C41.5355 58.7609 41.5624 58.7475 41.5893 58.7205C41.6163 58.7071 41.6432 58.6801 41.6567 58.6666C41.6971 58.6397 41.7375 58.5993 41.7644 58.5724C41.7779 58.5589 41.7914 58.5454 41.8183 58.532C41.926 58.4242 42.0203 58.3165 42.1011 58.1953C42.1146 58.1818 42.1146 58.1683 42.1281 58.1683C42.1685 58.1145 42.1954 58.0606 42.2223 58.0202C42.2358 58.0067 42.2493 57.9798 42.2493 57.9663C42.2762 57.9259 42.2897 57.872 42.3166 57.8316C42.3301 57.8047 42.3436 57.7778 42.357 57.7508C42.3705 57.7104 42.384 57.67 42.3974 57.6296C42.4109 57.6027 42.4244 57.5623 42.4378 57.5353C42.4378 57.5219 42.4378 57.5219 42.4513 57.5219L49.2392 35.8384L50.9766 40.9697C50.9766 40.9831 50.99 40.9831 50.99 40.9966C51.0304 41.1044 51.0708 41.2121 51.1247 41.3198C51.1247 41.3333 51.1247 41.3333 51.1382 41.3468C51.192 41.4411 51.2594 41.5353 51.3133 41.6296C51.3267 41.6565 51.3537 41.67 51.3671 41.6969C51.4345 41.7778 51.5018 41.8586 51.5826 41.9394C51.5961 41.9528 51.623 41.9663 51.6365 41.9798C51.7038 42.0471 51.7846 42.101 51.852 42.1549C51.8654 42.1683 51.8789 42.1818 51.9058 42.1953C52.0001 42.2626 52.0944 42.3165 52.1887 42.3703C52.2021 42.3838 52.2291 42.3838 52.2425 42.3973C52.3368 42.4377 52.4446 42.4916 52.5523 42.5185H52.5658C52.6735 42.5454 52.7813 42.5724 52.889 42.5993C52.9159 42.5993 52.9429 42.6128 52.9698 42.6128C53.0641 42.6262 53.1718 42.6397 53.2796 42.6397C53.293 42.6397 53.293 42.6397 53.3065 42.6397C53.32 42.5858 53.3335 42.5858 53.3335 42.5858Z" fill="#82B21E"/>
<path d="M78.7609 28.0404C77.7104 30.9495 76.0269 33.5623 73.8721 35.7172L71.8788 37.697H55.0707L51.4882 27.138C51.0572 25.8586 49.6566 25.1717 48.3771 25.6027C47.771 25.8047 47.2997 26.2222 47.0168 26.7475C46.9226 26.9091 46.8418 27.0707 46.7879 27.2458L40.8081 46.3838L35.1785 14.1279C35.1785 14.1145 35.165 14.0875 35.165 14.0741C35.1515 14.0202 35.1515 13.9798 35.1246 13.9259C35.1111 13.8855 35.1111 13.8586 35.0976 13.8182C35.0842 13.7778 35.0707 13.7374 35.0572 13.697C35.0438 13.6566 35.0303 13.6162 35.0034 13.5758C34.9899 13.5488 34.9764 13.5084 34.963 13.4815C34.9495 13.4411 34.9226 13.4007 34.8956 13.3603C34.8822 13.3333 34.8687 13.3064 34.8418 13.2795C34.8148 13.2391 34.7879 13.1987 34.7744 13.1717C34.7609 13.1448 34.734 13.1178 34.7071 13.0909C34.6801 13.064 34.6532 13.0236 34.6263 12.9966C34.5993 12.9697 34.5724 12.9293 34.5455 12.9024C34.5185 12.8754 34.4916 12.8485 34.4646 12.8215C34.4377 12.7811 34.3973 12.7542 34.3569 12.7273C34.33 12.7003 34.3165 12.6869 34.2896 12.6734C34.2492 12.6465 34.2088 12.6061 34.1684 12.5791C34.1414 12.5657 34.1279 12.5522 34.101 12.5387C34.0606 12.5118 34.0202 12.4848 33.9663 12.4579C33.9394 12.4444 33.9125 12.431 33.8855 12.4175C33.8451 12.3906 33.8047 12.3771 33.7508 12.3502C33.7239 12.3367 33.6835 12.3232 33.6566 12.3098C33.6162 12.2963 33.5758 12.2828 33.5354 12.2694C33.4949 12.2559 33.4545 12.2424 33.4141 12.229C33.3872 12.2155 33.3737 12.2155 33.3468 12.202C33.3333 12.202 33.3199 12.202 33.3064 12.1886C33.266 12.1751 33.2121 12.1616 33.1717 12.1616C33.1313 12.1481 33.1044 12.1481 33.064 12.1481C33.0236 12.1481 32.9832 12.1347 32.9293 12.1347C32.8889 12.1347 32.8485 12.1212 32.8081 12.1212C32.7677 12.1212 32.7407 12.1212 32.7003 12.1212C32.6599 12.1212 32.6061 12.1212 32.5657 12.1212C32.5387 12.1212 32.4983 12.1212 32.4714 12.1347C32.4175 12.1347 32.3771 12.1481 32.3232 12.1481C32.3098 12.1481 32.2963 12.1481 32.2828 12.1481C32.2559 12.1481 32.2424 12.1616 32.2155 12.1616C32.1751 12.1751 32.1347 12.1751 32.0808 12.1886C32.0404 12.202 32 12.2155 31.9596 12.229C31.9192 12.2424 31.8923 12.2559 31.8519 12.2694C31.8114 12.2828 31.7576 12.3098 31.7172 12.3232C31.6902 12.3367 31.6633 12.3502 31.6364 12.3636C31.596 12.3906 31.5421 12.404 31.5017 12.431C31.4747 12.4444 31.4478 12.4579 31.4343 12.4714C31.3939 12.4983 31.3535 12.5253 31.3131 12.5522C31.2862 12.5657 31.2593 12.5926 31.2458 12.6061C31.2054 12.633 31.165 12.6599 31.138 12.6869C31.1111 12.7138 31.0842 12.7273 31.0572 12.7542C31.0303 12.7811 30.9899 12.8081 30.963 12.835C30.936 12.862 30.9091 12.8889 30.8822 12.9293C30.8552 12.9562 30.8283 12.9832 30.8148 13.0101C30.7879 13.0505 30.7609 13.0774 30.734 13.1178C30.7205 13.1448 30.6936 13.1717 30.6801 13.1987C30.6532 13.2391 30.6263 13.2795 30.6128 13.3064C30.5993 13.3333 30.5724 13.3737 30.5589 13.4007C30.5455 13.4411 30.5185 13.468 30.5051 13.5084C30.4916 13.5488 30.4646 13.5892 30.4512 13.6296C30.4377 13.6566 30.4242 13.697 30.4108 13.7239C30.3973 13.7778 30.3838 13.8182 30.3569 13.8721C30.3569 13.8855 30.3434 13.9125 30.3434 13.9259L24.0135 37.697H8.14815L7.40741 36.9024C6.57239 36.1886 5.79125 35.4209 5.07744 34.5859C3.39394 32.6195 2.06061 30.3569 1.18519 27.8788C0.417508 25.7104 0 23.367 0 20.9428C0 9.38721 9.38721 0 20.9293 0C29.4007 0 36.7138 5.06397 40 12.3098C43.2862 5.06397 50.5993 0 59.0707 0C70.6128 0 80 9.38721 80 20.9428C80 23.4209 79.569 25.8182 78.7609 28.0404Z" fill="#82B21E"/>
</svg>
