<svg width="63" height="80" viewBox="0 0 63 80" fill="none" xmlns="http://www.w3.org/2000/svg">
<path d="M46.3927 66.8493C44.7489 64.8402 41.8265 64.6576 40 66.3014C36.7123 69.2238 32.3288 70.685 27.9452 70.685C17.5342 70.8676 9.13242 62.4658 9.13242 52.0548C9.13242 48.4019 10.2283 44.7489 12.2374 41.6439C13.6986 39.6347 13.1507 36.7124 10.9589 35.2512C8.94977 33.79 6.0274 34.3379 4.56621 36.5297C1.64384 41.0959 0 46.5754 0 52.0548C0 67.3973 12.4201 80 27.9452 80C34.5205 80 40.9132 77.6256 45.8447 73.4247C47.6712 71.7809 48.0365 68.8585 46.3927 66.8493Z" fill="#82B21E"/>
<path d="M61.9178 68.6758L54.4292 44.9315C53.8813 43.2877 52.2374 42.0091 50.5936 42.0091H26.484V34.1553H42.3744C44.5662 34.1553 46.5753 32.3288 46.5753 29.9543C46.5753 27.5799 44.7488 25.7534 42.3744 25.7534H26.484V16.8037C29.2237 15.5251 31.2329 12.6027 31.2329 9.13242C31.2329 4.01826 27.2146 0 22.1004 0C16.9863 0 12.968 4.01826 12.968 9.13242C12.968 12.7854 15.1598 15.8904 18.2648 17.3516V46.0274C18.2648 48.2192 20.0913 50.0457 22.4657 50.0457H47.4886L54.0639 70.8676C54.6119 72.6941 56.2557 73.79 57.8995 73.79C58.2648 73.79 58.8128 73.7899 59.1781 73.6073C61.3698 73.0594 62.4657 70.6849 61.9178 68.6758Z" fill="#82B21E"/>
</svg>
