<svg width="65" height="100" viewBox="0 0 65 100" fill="none" xmlns="http://www.w3.org/2000/svg">
<path d="M61.9796 70.665C61.9796 70.665 50.6367 97.3925 49.2025 100C58.7201 100 66.0213 91.5255 64.5872 82.1383C63.9353 77.1839 63.0226 72.7511 61.9796 70.665Z" fill="#82B21E"/>
<path d="M2.78794 70.665C1.74491 72.7511 0.832267 77.1839 0.180377 82.0079C-1.25378 91.3952 6.04739 99.8697 15.565 99.8697C14.1308 97.2622 3.83096 73.403 2.65756 70.7954C2.78794 70.9258 2.78794 70.7954 2.78794 70.665Z" fill="#82B21E"/>
<path d="M45.552 64.7979L40.5976 63.7549C40.0761 61.6688 39.685 59.4524 39.4242 57.236C39.4242 56.9752 39.4242 56.8449 39.4242 56.5841H58.4594L56.3733 19.6871C55.7215 8.60496 45.0305 0 32.5142 0C19.9979 0 9.30685 8.60495 8.78534 19.8175H8.65496L6.56891 56.5841H25.6041C25.6041 56.8449 25.6041 56.9752 25.6041 57.236C25.4737 59.4524 25.0826 61.5385 24.4307 63.6245L15.8258 65.4498C15.8258 65.4498 21.6928 80.3129 24.4307 86.1799H32.3838H40.3368C43.0748 80.3129 48.9418 65.4498 48.9418 65.4498L45.552 64.7979ZM18.3029 43.9374C17.1295 41.1995 16.3473 38.8527 15.8258 36.7666C14.522 37.5489 12.4359 37.8097 12.6967 35.0717C13.2182 31.1604 10.6106 27.249 11.6537 24.5111C12.1752 23.0769 13.0878 23.5984 13.8701 24.5111C13.8701 23.9896 13.8701 23.3377 14.0005 22.8162C14.6524 16.6884 18.0422 11.3429 22.7358 8.21382C25.4737 6.38853 28.8636 5.3455 32.3838 5.3455C35.904 5.3455 39.0331 6.38853 41.771 8.21382C46.9861 11.6037 50.5063 17.601 50.7671 24.5111C50.7671 24.6415 50.7671 24.7718 50.7671 24.9022C51.5494 23.8592 52.5924 23.2073 53.2443 24.6415C54.2873 27.3794 51.8101 31.2907 52.2012 35.2021C52.5924 37.94 50.376 37.5489 49.0722 36.7666C48.5507 39.1134 47.8988 41.3299 46.595 43.9374C45.1608 47.1969 42.2925 50.326 39.2938 52.412L38.2508 53.0639C38.1204 53.1943 37.99 53.1943 37.99 53.1943C37.99 53.1943 38.1204 56.4537 38.1204 57.3664C38.2508 59.7132 38.7723 62.06 39.2938 64.2764C39.1634 64.5372 39.0331 64.7979 38.9027 65.0587C38.2508 65.9713 37.3381 66.7536 36.4255 67.2751C34.6002 68.1877 32.9053 68.4485 32.5142 68.5789C32.2534 68.5789 30.4281 68.1878 28.6028 67.1447C27.6902 66.6232 26.7775 65.9713 26.1256 65.0587C25.9952 64.7979 25.8649 64.6675 25.7345 64.4068C26.3864 62.1904 26.7775 59.7132 27.0383 57.3664C27.1687 56.4537 27.1686 53.3246 27.1686 53.3246C27.0383 53.3246 26.9079 53.1943 26.7775 53.1943L25.7345 52.5424C22.6054 50.4563 19.7371 47.3273 18.3029 43.9374Z" fill="#82B21E"/>
<path d="M32.3838 10.039C32.9053 15.7757 35.7736 26.0755 50.2456 29.8565C50.2456 29.8565 50.5063 28.8135 50.6367 27.2489C49.4633 17.6009 41.771 10.039 32.3838 10.039C22.9965 9.90864 15.3042 17.4706 14.1308 27.1185C14.2612 28.8135 14.522 29.8565 14.522 29.8565C28.9939 26.2059 31.9926 15.7757 32.3838 10.039Z" fill="#82B21E"/>
</svg>
